<svg width="18" height="18" viewBox="0 0 18 18" fill="none" xmlns="http://www.w3.org/2000/svg">
<g id="Icon/email">
<path id="Union" fill-rule="evenodd" clip-rule="evenodd" d="M3.05756 4.89794C3.17474 4.51381 3.53194 4.23438 3.95441 4.23438H14.4544C14.8769 4.23438 15.2341 4.51381 15.3513 4.89794L9.20441 8.99583L3.05756 4.89794ZM1.89193 5.16157C1.89183 5.16757 1.89182 5.17357 1.89191 5.17957V12.6719C1.89191 13.811 2.81532 14.7344 3.95441 14.7344H14.4544C15.5935 14.7344 16.5169 13.811 16.5169 12.6719V5.17956M15.3919 6.22292V12.6719C15.3919 13.1896 14.9722 13.6094 14.4544 13.6094H3.95441C3.43664 13.6094 3.01691 13.1896 3.01691 12.6719V6.22292L8.89239 10.1399C9.08133 10.2659 9.32748 10.2659 9.51643 10.1399L15.3919 6.22292ZM16.5169 5.16158C16.5113 4.02723 15.5901 3.10938 14.4544 3.10938H3.95441C2.81875 3.10938 1.89748 4.02723 1.89193 5.16157" fill="#282828"/>
</g>
</svg>
